<svg xmlns="http://www.w3.org/2000/svg" viewBox="0 0 109.5 124.5" fill="#95BF47">
  <path d="M95.9 23.9c-.1-.7-.6-1.1-1.1-1.1-.5 0-10.2-.8-10.2-.8s-6.7-6.7-7.5-7.5c-.8-.8-2.3-.5-2.9-.4-.1 0-1.5.5-4 1.2-2.4-6.8-6.5-13.1-13.8-13.1h-.6C53.5.3 50.9 0 48.7 0 28.9 0 19.2 14.8 16.2 22.3c-8 2.5-13.7 4.2-14.4 4.5C.6 27.2.5 27.3.3 28.5-.1 30.3 0 84.8 0 84.8l71.5 13.4 38-9.5s-13.5-64-13.6-64.8zM67.2 16.8l-6.4 2c0-3.4-.5-8.2-1.9-12.2 4.8.9 7.2 6.3 8.3 10.2zM55 19.5l-13.7 4.2c1.3-5.1 3.8-10.2 8.5-13.5 1.8-1.3 4.3-2.7 7.2-3.1-1.5 3.2-2 7.6-2 12.4zM48.8 5.6c.8 0 1.4.1 2.1.3-6.8 3.2-14.1 11.3-17.2 27.4L23 36.5c3.7-12.5 11-30.9 25.8-30.9z"/>
  <path d="M94.8 22.8c-.5 0-10.2-.8-10.2-.8s-6.7-6.7-7.5-7.5c-.3-.3-.7-.4-1-.5L71.5 98.2l38-9.5S96 23.5 95.9 22.8c-.1-.7-.6-1-1.1-1z" fill="#5E8E3E"/>
  <path d="M58 39.9l-4.8 14.3s-4.2-2.2-9.3-2.2c-7.5 0-7.9 4.7-7.9 5.9 0 6.5 16.9 9 16.9 24.2 0 12-7.6 19.7-17.8 19.7-12.3 0-18.6-7.6-18.6-7.6l3.3-10.9s6.5 5.6 12 5.6c3.6 0 5.1-2.8 5.1-4.9 0-8.5-13.8-8.9-13.8-22.8C23.1 49 32.3 36.7 49 36.7c6.4 0 9 1.8 9 3.2z" fill="#fff"/>
</svg>
